<svg id="Ebene_1" data-name="Ebene 1" xmlns="http://www.w3.org/2000/svg" viewBox="0 0 712.74 207.29"><defs><style>.cls-1{fill:#c4182a;}.cls-2{fill:#fff;}</style></defs><title>FH Logo quer neu_rot weiss</title><polygon class="cls-1" points="0 0.15 0 109.85 103.97 5.23 205.77 107.8 205.77 0.15 0 0.15"/><polygon class="cls-1" points="0 167 0 207.29 101.07 207.29 101.07 60.52 0 167"/><polygon class="cls-1" points="106.86 207.29 205.77 207.29 205.77 164.7 106.86 60.53 106.86 207.29"/><path class="cls-2" d="M343.87,352h7.77c3.36,0,6.25-1.09,6.25-4.88,0-3-2.29-4.58-6.25-4.58h-7.77Zm0-11.39h7.77c3.63,0,5.35-1.79,5.35-4,0-3-1.82-4.45-5.35-4.45h-7.77Zm-2.26-10.4h10c4,0,7.61,1.4,7.61,5.82a5.38,5.38,0,0,1-4.12,5.31v.07a5.56,5.56,0,0,1,5,5.78c0,2.26-.8,6.74-8.51,6.74h-10Z" transform="translate(-62.83 -189.55)"/><path class="cls-2" d="M368.12,344.58h9.33l-4.58-12.16Zm3.58-14.42h2.53l9.3,23.72H381.1l-2.89-7.37H367.42l-2.86,7.37h-2.42Z" transform="translate(-62.83 -189.55)"/><path class="cls-2" d="M386.45,330.16h2.26v14.68c0,5.52,2.59,7.61,6.94,7.61s7-2.09,7-7.61V330.16h2.26v15.19c0,4.88-2.62,9-9.23,9s-9.2-4.15-9.2-9Z" transform="translate(-62.83 -189.55)"/><path class="cls-2" d="M430.68,353.88h-1.62l-.3-4.32h-.07c-1.6,3.39-4.78,4.82-8.2,4.82-7.48,0-11.2-5.88-11.2-12.36s3.72-12.36,11.2-12.36c5,0,9,2.7,9.9,7.88h-2.26c-.3-2.72-3.13-6-7.64-6-6.28,0-8.94,5.25-8.94,10.43s2.66,10.43,8.94,10.43c5.25,0,8.3-3.68,8.2-8.7h-8.07v-1.93h10.06Z" transform="translate(-62.83 -189.55)"/><polygon class="cls-2" points="373.19 140.62 389.57 140.62 389.57 142.54 375.45 142.54 375.45 151.11 388.67 151.11 388.67 153.04 375.45 153.04 375.45 162.41 389.73 162.41 389.73 164.33 373.19 164.33 373.19 140.62"/><polygon class="cls-2" points="393.85 140.62 396.37 140.62 410.19 160.68 410.26 160.68 410.26 140.62 412.52 140.62 412.52 164.33 409.99 164.33 396.17 144.27 396.11 144.27 396.11 164.33 393.85 164.33 393.85 140.62"/><path class="cls-2" d="M491,352.45c6.25,0,8.9-5.25,8.9-10.43s-2.65-10.43-8.9-10.43-8.94,5.25-8.94,10.43,2.66,10.43,8.94,10.43m0-22.78c7.44,0,11.16,5.87,11.16,12.35s-3.72,12.36-11.16,12.36S479.83,348.5,479.83,342s3.72-12.35,11.19-12.35" transform="translate(-62.83 -189.55)"/><path class="cls-2" d="M507.76,346.07c-.1,4.89,3.42,6.38,7.74,6.38,2.48,0,6.27-1.36,6.27-4.81,0-2.7-2.69-3.76-4.88-4.29l-5.28-1.29c-2.79-.7-5.35-2-5.35-5.72,0-2.32,1.5-6.68,8.17-6.68,4.68,0,8.8,2.53,8.77,7.38h-2.26c-.13-3.62-3.12-5.45-6.48-5.45-3.08,0-5.94,1.2-5.94,4.72,0,2.22,1.66,3.16,3.59,3.62l5.78,1.43c3.35.9,6.14,2.36,6.14,6.24,0,1.63-.66,6.78-9.07,6.78-5.61,0-9.73-2.53-9.46-8.31Z" transform="translate(-62.83 -189.55)"/><path class="cls-2" d="M529.67,346.07c-.1,4.89,3.43,6.38,7.74,6.38,2.49,0,6.28-1.36,6.28-4.81,0-2.7-2.69-3.76-4.88-4.29l-5.29-1.29c-2.78-.7-5.34-2-5.34-5.72,0-2.32,1.49-6.68,8.17-6.68,4.68,0,8.8,2.53,8.77,7.38h-2.26c-.13-3.62-3.12-5.45-6.48-5.45-3.09,0-5.94,1.2-5.94,4.72,0,2.22,1.66,3.16,3.59,3.62l5.78,1.43c3.35.9,6.14,2.36,6.14,6.24,0,1.63-.67,6.78-9.07,6.78-5.61,0-9.73-2.53-9.47-8.31Z" transform="translate(-62.83 -189.55)"/><polygon class="cls-2" points="487.69 140.62 504.07 140.62 504.07 142.54 489.95 142.54 489.95 151.11 503.17 151.11 503.17 153.04 489.95 153.04 489.95 162.41 504.23 162.41 504.23 164.33 487.69 164.33 487.69 140.62"/><polygon class="cls-2" points="508.35 140.62 510.87 140.62 524.69 160.68 524.76 160.68 524.76 140.62 527.01 140.62 527.01 164.33 524.49 164.33 510.68 144.27 510.61 144.27 510.61 164.33 508.35 164.33 508.35 140.62"/><path class="cls-2" d="M596.65,346.07c-.1,4.89,3.43,6.38,7.74,6.38,2.49,0,6.28-1.36,6.28-4.81,0-2.7-2.69-3.76-4.88-4.29l-5.29-1.29c-2.78-.7-5.34-2-5.34-5.72,0-2.32,1.49-6.68,8.17-6.68,4.68,0,8.8,2.53,8.77,7.38h-2.26c-.13-3.62-3.12-5.45-6.48-5.45-3.09,0-5.94,1.2-5.94,4.72,0,2.22,1.66,3.16,3.59,3.62l5.78,1.43c3.35.9,6.14,2.36,6.14,6.24,0,1.63-.67,6.78-9.07,6.78-5.61,0-9.73-2.53-9.47-8.31Z" transform="translate(-62.83 -189.55)"/><path class="cls-2" d="M634.85,337.34a7.19,7.19,0,0,0-7.28-5.75c-6.27,0-8.93,5.25-8.93,10.43s2.66,10.43,8.93,10.43c4.39,0,7.18-3.39,7.61-7.61h2.26c-.63,5.82-4.32,9.54-9.87,9.54-7.47,0-11.19-5.88-11.19-12.36s3.72-12.35,11.19-12.35c4.49,0,8.94,2.69,9.54,7.67Z" transform="translate(-62.83 -189.55)"/><polygon class="cls-2" points="579.05 140.62 581.31 140.62 581.31 150.91 595.39 150.91 595.39 140.62 597.65 140.62 597.65 164.33 595.39 164.33 595.39 152.84 581.31 152.84 581.31 164.33 579.05 164.33 579.05 140.62"/><path class="cls-2" d="M669.61,344.58H679l-4.59-12.16Zm3.59-14.42h2.52l9.3,23.72H682.6l-2.89-7.37h-10.8l-2.85,7.37h-2.43Z" transform="translate(-62.83 -189.55)"/><polygon class="cls-2" points="625.34 140.62 640.39 140.62 640.39 142.54 627.6 142.54 627.6 151.11 638.96 151.11 638.96 153.04 627.6 153.04 627.6 164.33 625.34 164.33 625.34 140.62"/><polygon class="cls-2" points="641.61 140.62 660.41 140.62 660.41 142.54 652.14 142.54 652.14 164.33 649.88 164.33 649.88 142.54 641.61 142.54 641.61 140.62"/><path class="cls-2" d="M748.62,344.12c-.11-3.16-2.06-6.12-5.45-6.12s-5.32,3-5.65,6.12Zm-11.1,1.75c0,3.06,1.63,6.75,5.65,6.75,3.06,0,4.72-1.79,5.38-4.39h2.09c-.89,3.89-3.15,6.15-7.47,6.15-5.45,0-7.74-4.19-7.74-9.07,0-4.52,2.29-9.07,7.74-9.07s7.71,4.82,7.54,9.63Z" transform="translate(-62.83 -189.55)"/><path class="cls-2" d="M775.18,353.88h-1.62l-.3-4.32h-.07c-1.59,3.39-4.78,4.82-8.2,4.82-7.47,0-11.19-5.88-11.19-12.36s3.72-12.36,11.19-12.36c5,0,9,2.7,9.9,7.88h-2.26c-.3-2.72-3.13-6-7.64-6-6.28,0-8.94,5.25-8.94,10.43s2.66,10.43,8.94,10.43c5.24,0,8.3-3.68,8.2-8.7h-8.07v-1.93h10.06Z" transform="translate(-62.83 -189.55)"/><polygon class="cls-2" points="278.81 0 278.81 46.35 283.23 46.35 283.23 24.28 305.43 24.28 305.43 20.51 283.23 20.51 283.23 3.77 308.22 3.77 308.22 0 278.81 0"/><path class="cls-2" d="M390.26,194l9,23.76H381ZM388,189.55,369.3,235.89H374l5.58-14.41h21.09l5.65,14.41h4.74l-18.17-46.34Z" transform="translate(-62.83 -189.55)"/><polygon class="cls-2" points="392.33 0 376.36 40.63 360.33 0 353.84 0 353.84 46.35 358.25 46.35 358.25 6.3 358.39 6.3 374.29 46.35 378.44 46.35 394.28 6.3 394.41 6.3 394.41 46.35 398.82 46.35 398.82 0 392.33 0"/><rect class="cls-2" x="409.85" width="4.41" height="46.34"/><polygon class="cls-2" points="425.43 0 425.43 46.35 455.8 46.35 455.8 42.58 429.84 42.58 429.84 0 425.43 0"/><rect class="cls-2" x="462.09" width="4.41" height="46.34"/><polygon class="cls-2" points="477.67 0 477.67 46.35 509.99 46.35 509.99 42.58 482.08 42.58 482.08 24.28 507.92 24.28 507.92 20.51 482.08 20.51 482.08 3.77 509.67 3.77 509.67 0 477.67 0"/><polygon class="cls-2" points="549.65 0 549.65 39.2 549.52 39.2 522.52 0 517.58 0 517.58 46.35 522 46.35 522 7.14 522.13 7.14 549.13 46.35 554.06 46.35 554.06 0 549.65 0"/><polygon class="cls-2" points="596.77 0 596.77 20.12 569.25 20.12 569.25 0 564.83 0 564.83 46.35 569.25 46.35 569.25 23.88 596.77 23.88 596.77 46.35 601.18 46.35 601.18 0 596.77 0"/><polygon class="cls-2" points="612.02 0 612.02 46.35 644.34 46.35 644.34 42.58 616.43 42.58 616.43 24.28 642.26 24.28 642.26 20.51 616.43 20.51 616.43 3.77 644.01 3.77 644.01 0 612.02 0"/><rect class="cls-2" x="652.31" width="4.42" height="46.34"/><polygon class="cls-2" points="706.25 0 690.28 40.63 674.25 0 667.76 0 667.76 46.35 672.17 46.35 672.17 6.3 672.31 6.3 688.21 46.35 692.36 46.35 708.2 6.3 708.33 6.3 708.33 46.35 712.74 46.35 712.74 0 706.25 0"/><polygon class="cls-2" points="278.82 68.41 308.22 68.41 308.22 72.17 283.23 72.17 283.23 88.92 305.43 88.92 305.43 92.68 283.23 92.68 283.23 114.75 278.82 114.75 278.82 68.41"/><path class="cls-2" d="M382.34,280h16.49c5.39,0,10-3.38,10-9s-3.38-9.21-10-9.21H382.34Zm-4.41-22h21.23c7.65,0,14.08,3.7,14.08,12.07,0,5.85-3.05,10.65-9,11.82V282c6,.78,7.78,4.93,8.11,10.45.2,3.18.2,9.54,2.14,11.87h-4.86c-1.11-1.81-1.11-5.25-1.24-7.2-.39-6.49-.91-13.7-9.28-13.37H382.34v20.57h-4.41Z" transform="translate(-62.83 -189.55)"/><polygon class="cls-2" points="359.81 68.41 391.81 68.41 391.81 72.17 364.23 72.17 364.23 88.92 390.06 88.92 390.06 92.68 364.23 92.68 364.23 110.98 392.14 110.98 392.14 114.75 359.81 114.75 359.81 68.41"/><rect class="cls-2" x="400.05" y="68.41" width="4.41" height="46.34"/><path class="cls-2" d="M482.81,300.53H498c6.55.07,12.2-2.14,12.2-9.54,0-5.91-4.48-9-12.2-9H482.81Zm0-22.26H498c7.07,0,10.45-3.51,10.45-7.86,0-5.77-3.58-8.69-10.45-8.69H482.81ZM478.39,258H498c7.78,0,14.86,2.73,14.86,11.36a10.53,10.53,0,0,1-8.05,10.39v.13c6,.78,9.8,5.25,9.8,11.29,0,4.41-1.56,13.17-16.61,13.17H478.39Z" transform="translate(-62.83 -189.55)"/><path class="cls-2" d="M522.66,258h4.41v28.69c-.07,10.77,5.06,14.86,13.57,14.86s13.69-4.09,13.63-14.86V258h4.41v29.66c0,9.55-5.13,17.66-18,17.66s-18-8.11-18-17.66Z" transform="translate(-62.83 -189.55)"/><path class="cls-2" d="M573.41,280H589.9c5.38,0,10-3.38,10-9s-3.37-9.21-10-9.21H573.41ZM569,258h21.22c7.66,0,14.09,3.7,14.09,12.07,0,5.85-3,10.65-9,11.82V282c6,.78,7.79,4.93,8.12,10.45.19,3.18.19,9.54,2.14,11.87h-4.87c-1.1-1.81-1.1-5.25-1.23-7.2-.39-6.49-.91-13.7-9.28-13.37H573.41v20.57H569Z" transform="translate(-62.83 -189.55)"/><path class="cls-2" d="M653.3,304.29h-3.18l-.58-8.43h-.13c-3.12,6.62-9.35,9.41-16,9.41-14.61,0-21.87-11.49-21.87-24.15S618.77,257,633.38,257c9.74,0,17.65,5.25,19.34,15.38h-4.41c-.59-5.32-6.1-11.62-14.93-11.62-12.27,0-17.46,10.26-17.46,20.38s5.19,20.38,17.46,20.38c10.25,0,16.23-7.2,16-17H633.64v-3.76H653.3Z" transform="translate(-62.83 -189.55)"/></svg>